# xmcd
#
# Track frame offsets: 
#        182
#        15960
#        32837
#        47155
#        66550
#        76505
#        93845
#        109610
#        126102
#        144560
#        161797
#        176045
#        192150
#        206740
#        226815
#        243492
#        256817
#
# Disc length: 3565 seconds
#
# Revision: 1
# Processed by: cddbd v1.5.2PL0 Copyright (c) Steve Scherf et al.
# Submitted via: ExactAudioCopyFreeDBPlugin 1.0
#
DISCID=de0deb11
DTITLE=Various Artist - GSCD78 - Modern Soul Volume 5
DYEAR=1900
DGENRE=Northern Soul
TTITLE0=Larom Baker - You're The Best
TTITLE1=King Tutt - You Got Me Hung Up
TTITLE2=The Chosen Few Band - What It Takes To Live
TTITLE3=Jewel - Paradise
TTITLE4=Cecil Lyde - I'll Make It On My Own
TTITLE5=Horizon - They Don't Make 'Em Like You
TTITLE6=Greg Perry - It Takes Heart
TTITLE7=Curtis Anderson - The Hardest Part
TTITLE8=Bill - Space Lady
TTITLE9=Whatnauts - Help Is On The Way
TTITLE10=S.P.G. - Loveland
TTITLE11=Moody Scott - My Lovely Lady
TTITLE12=William Bostic - What You Do To Me
TTITLE13=The Pictures - I'm Gonna See You Through
TTITLE14=Willie Johnson - What I'm Going To Do Without Your Love
TTITLE15=Michael Cloud - Check Your Direction
TTITLE16=Alex Taylor - Slowly Turning To Love
EXTD=ID3G: 42
EXTT0=
EXTT1=
EXTT2=
EXTT3=
EXTT4=
EXTT5=
EXTT6=
EXTT7=
EXTT8=
EXTT9=
EXTT10=
EXTT11=
EXTT12=
EXTT13=
EXTT14=
EXTT15=
EXTT16=
PLAYORDER=
